<svg width="22" height="22" viewBox="0 0 22 22" fill="none" xmlns="http://www.w3.org/2000/svg">
<path d="M19.7949 8.45463L14.4791 6.54407L12.2571 3.75419C12.0639 3.51797 11.8205 3.32773 11.5447 3.19728C11.2688 3.06682 10.9673 2.99944 10.6621 3H5.16488C4.82867 2.99989 4.49753 3.08203 4.20035 3.23925C3.90316 3.39647 3.64895 3.624 3.45988 3.902L1.59538 6.64032C1.20704 7.21021 0.999556 7.88394 1 8.57357V14C1 14.1823 1.07243 14.3572 1.20136 14.4861C1.3303 14.6151 1.50516 14.6875 1.6875 14.6875H3.16013C3.30968 15.2775 3.65171 15.8009 4.1321 16.1747C4.61248 16.5485 5.2038 16.7515 5.8125 16.7515C6.4212 16.7515 7.01252 16.5485 7.4929 16.1747C7.97329 15.8009 8.31532 15.2775 8.46488 14.6875H12.7851C12.9347 15.2775 13.2767 15.8009 13.7571 16.1747C14.2375 16.5485 14.8288 16.7515 15.4375 16.7515C16.0462 16.7515 16.6375 16.5485 17.1179 16.1747C17.5983 15.8009 17.9403 15.2775 18.0899 14.6875H19.5625C19.7448 14.6875 19.9197 14.6151 20.0486 14.4861C20.1776 14.3572 20.25 14.1823 20.25 14V9.10157C20.25 8.95999 20.2063 8.82188 20.1248 8.70609C20.0433 8.5903 19.9281 8.50248 19.7949 8.45463ZM5.8125 15.375C5.54055 15.375 5.27471 15.2944 5.04859 15.1433C4.82247 14.9922 4.64624 14.7774 4.54217 14.5262C4.4381 14.2749 4.41087 13.9985 4.46392 13.7318C4.51698 13.465 4.64793 13.22 4.84023 13.0277C5.03253 12.8354 5.27753 12.7045 5.54425 12.6514C5.81098 12.5984 6.08744 12.6256 6.33869 12.7297C6.58994 12.8337 6.80468 13.01 6.95577 13.2361C7.10686 13.4622 7.1875 13.7281 7.1875 14C7.18695 14.3645 7.04191 14.7139 6.78417 14.9717C6.52643 15.2294 6.17701 15.3745 5.8125 15.375ZM15.4375 15.375C15.1656 15.375 14.8997 15.2944 14.6736 15.1433C14.4475 14.9922 14.2712 14.7774 14.1672 14.5262C14.0631 14.2749 14.0359 13.9985 14.0889 13.7318C14.142 13.465 14.2729 13.22 14.4652 13.0277C14.6575 12.8354 14.9025 12.7045 15.1693 12.6514C15.436 12.5984 15.7124 12.6256 15.9637 12.7297C16.2149 12.8337 16.4297 13.01 16.5808 13.2361C16.7319 13.4622 16.8125 13.7281 16.8125 14C16.8121 14.3646 16.6672 14.7141 16.4094 14.9719C16.1516 15.2297 15.8021 15.3746 15.4375 15.375ZM18.875 13.3125H18.0899C17.9403 12.7225 17.5983 12.1991 17.1179 11.8253C16.6375 11.4515 16.0462 11.2485 15.4375 11.2485C14.8288 11.2485 14.2375 11.4515 13.7571 11.8253C13.2767 12.1991 12.9347 12.7225 12.7851 13.3125H8.46488C8.31532 12.7225 7.97329 12.1991 7.4929 11.8253C7.01252 11.4515 6.4212 11.2485 5.8125 11.2485C5.2038 11.2485 4.61248 11.4515 4.1321 11.8253C3.65171 12.1991 3.30968 12.7225 3.16013 13.3125H2.375V8.57357C2.37493 8.15961 2.4995 7.75522 2.7325 7.41307L4.59631 4.67613C4.65934 4.58337 4.74409 4.50744 4.8432 4.45495C4.9423 4.40247 5.05273 4.37502 5.16488 4.375H10.6621C10.7622 4.37461 10.8611 4.3962 10.9518 4.43826C11.0426 4.48032 11.123 4.54181 11.1874 4.61838L13.5249 7.55332C13.6044 7.6531 13.7101 7.7288 13.8301 7.77194L18.875 9.58488V13.3125Z" fill="#D0D0D0"/>
</svg>
