<svg width="85" height="30" viewBox="0 0 85 30" fill="none" xmlns="http://www.w3.org/2000/svg">
<path d="M10.88 0.18V0.979999C9.97333 1.00667 9.28 1.11333 8.8 1.3C8.34667 1.46 8.04 1.78 7.88 2.26C7.72 2.71333 7.64 3.43333 7.64 4.42V24.26C7.64 25.22 7.72 25.94 7.88 26.42C8.04 26.9 8.34667 27.22 8.8 27.38C9.28 27.5133 9.97333 27.58 10.88 27.58H13.8C15.0533 27.58 16.0667 27.4467 16.84 27.18C17.64 26.9133 18.2667 26.5 18.72 25.94C19.2 25.3533 19.56 24.58 19.8 23.62C20.04 22.66 20.2267 21.4867 20.36 20.1H21.28C21.2 20.9267 21.16 22.02 21.16 23.38C21.16 23.8867 21.1733 24.62 21.2 25.58C21.2533 26.5133 21.3333 27.4867 21.44 28.5C20.08 28.4467 18.5467 28.42 16.84 28.42C15.1333 28.3933 13.6133 28.38 12.28 28.38C11.6933 28.38 10.9333 28.38 10 28.38C9.09333 28.38 8.10667 28.3933 7.04 28.42C5.97333 28.42 4.89333 28.4333 3.8 28.46C2.70667 28.46 1.66667 28.4733 0.68 28.5V27.7C1.58667 27.6467 2.26667 27.54 2.72 27.38C3.2 27.22 3.52 26.9 3.68 26.42C3.84 25.94 3.92 25.22 3.92 24.26V4.42C3.92 3.43333 3.84 2.71333 3.68 2.26C3.52 1.78 3.2 1.46 2.72 1.3C2.26667 1.11333 1.58667 1.00667 0.68 0.979999V0.18C1.24 0.206666 1.97333 0.233332 2.88 0.259999C3.78667 0.286665 4.76 0.299998 5.8 0.299998C6.73333 0.299998 7.65333 0.286665 8.56 0.259999C9.49333 0.233332 10.2667 0.206666 10.88 0.18ZM41.8356 7.46V24.18C41.8356 25.38 42.049 26.2733 42.4756 26.86C42.929 27.42 43.729 27.7 44.8756 27.7V28.54C44.049 28.46 43.2223 28.42 42.3956 28.42C41.6223 28.42 40.8756 28.46 40.1556 28.54C39.4623 28.62 38.8223 28.7667 38.2356 28.98V24.26C37.569 25.9933 36.6223 27.2333 35.3956 27.98C34.1956 28.7 32.9556 29.06 31.6756 29.06C30.7423 29.06 29.929 28.9267 29.2356 28.66C28.5423 28.3933 27.969 28.02 27.5156 27.54C27.009 27.0067 26.6623 26.3133 26.4756 25.46C26.289 24.6067 26.1956 23.5533 26.1956 22.3V12.26C26.1956 11.06 25.9823 10.18 25.5556 9.62C25.129 9.03333 24.329 8.74 23.1556 8.74V7.9C24.009 7.98 24.8356 8.02 25.6356 8.02C26.409 8.02 27.1423 7.98 27.8356 7.9C28.5556 7.79333 29.209 7.64666 29.7956 7.46V23.18C29.7956 24.0067 29.849 24.7667 29.9556 25.46C30.0623 26.1533 30.329 26.7133 30.7556 27.14C31.1823 27.5667 31.8756 27.78 32.8356 27.78C33.8756 27.78 34.7956 27.46 35.5956 26.82C36.4223 26.18 37.0623 25.3133 37.5156 24.22C37.9956 23.1267 38.2356 21.9 38.2356 20.54V12.26C38.2356 11.06 38.0223 10.18 37.5956 9.62C37.169 9.03333 36.369 8.74 35.1956 8.74V7.9C36.049 7.98 36.8756 8.02 37.6756 8.02C38.449 8.02 39.1823 7.98 39.8756 7.9C40.5956 7.79333 41.249 7.64666 41.8356 7.46ZM54.2378 7.9V8.74C53.7311 8.74 53.3045 8.86 52.9578 9.1C52.6111 9.34 52.5711 9.67333 52.8378 10.1L63.5178 25.66C63.9711 26.3267 64.3711 26.8067 64.7178 27.1C65.0645 27.3667 65.4911 27.5533 65.9978 27.66V28.5C65.7311 28.4733 65.3178 28.4467 64.7578 28.42C64.2245 28.3667 63.6911 28.34 63.1578 28.34C62.3311 28.34 61.4378 28.3667 60.4778 28.42C59.5445 28.4467 58.8645 28.4733 58.4378 28.5V27.66C58.9711 27.66 59.4111 27.54 59.7578 27.3C60.1045 27.0333 60.1311 26.7 59.8378 26.3L49.1578 10.74C48.6245 9.96667 48.1978 9.46 47.8778 9.22C47.5578 8.95333 47.1578 8.79333 46.6778 8.74V7.9C46.9445 7.92667 47.3578 7.96667 47.9178 8.02C48.4778 8.04667 49.0111 8.06 49.5178 8.06C50.3711 8.06 51.2645 8.04667 52.1978 8.02C53.1311 7.96667 53.8111 7.92667 54.2378 7.9ZM55.3178 18.06C55.3178 18.06 55.3445 18.1533 55.3978 18.34C55.4511 18.5 55.5045 18.6733 55.5578 18.86C55.6378 19.0467 55.6778 19.14 55.6778 19.14L52.3578 23.46C51.6645 24.3667 51.2911 25.1267 51.2378 25.74C51.2111 26.3533 51.4645 26.82 51.9978 27.14C52.5311 27.4333 53.2645 27.62 54.1978 27.7V28.5C53.7445 28.4733 53.2378 28.46 52.6778 28.46C52.1178 28.4333 51.5711 28.42 51.0378 28.42C50.5311 28.3933 50.0645 28.38 49.6378 28.38C49.0245 28.38 48.4645 28.3933 47.9578 28.42C47.4778 28.42 47.0245 28.4467 46.5978 28.5V27.7C47.1045 27.6467 47.6245 27.42 48.1578 27.02C48.7178 26.5933 49.3711 25.8867 50.1178 24.9L55.3178 18.06ZM65.1978 7.9V8.7C64.6911 8.75333 64.1311 9.02 63.5178 9.5C62.9311 9.95333 62.3178 10.62 61.6778 11.5L57.0778 17.86C57.0778 17.86 57.0511 17.78 56.9978 17.62C56.9445 17.4333 56.8911 17.26 56.8378 17.1C56.7845 16.9133 56.7578 16.82 56.7578 16.82L59.8778 12.46C60.4645 11.6333 60.8378 10.9533 60.9978 10.42C61.1578 9.88667 61.0645 9.48667 60.7178 9.22C60.3978 8.92667 59.7578 8.75333 58.7978 8.7V7.9C59.4911 7.92667 60.0645 7.95333 60.5178 7.98C60.9978 8.00667 61.5445 8.02 62.1578 8.02C62.7711 8.02 63.3178 8.00667 63.7978 7.98C64.3045 7.95333 64.7711 7.92667 65.1978 7.9ZM76.7159 7.34C79.0626 7.34 80.8893 8.06 82.1959 9.5C83.5293 10.9133 84.1959 13.1267 84.1959 16.14H70.0759L70.0359 15.38H80.3559C80.4093 14.0733 80.3026 12.8733 80.0359 11.78C79.7693 10.66 79.3426 9.76667 78.7559 9.1C78.1959 8.43333 77.4626 8.1 76.5559 8.1C75.3293 8.1 74.2359 8.71333 73.2759 9.94C72.3426 11.1667 71.7826 13.1133 71.5959 15.78L71.7159 15.94C71.6626 16.34 71.6226 16.78 71.5959 17.26C71.5693 17.74 71.5559 18.22 71.5559 18.7C71.5559 20.5133 71.8493 22.0733 72.4359 23.38C73.0226 24.6867 73.7826 25.6867 74.7159 26.38C75.6759 27.0467 76.6626 27.38 77.6759 27.38C78.4759 27.38 79.2359 27.26 79.9559 27.02C80.6759 26.7533 81.3426 26.3267 81.9559 25.74C82.5693 25.1533 83.1026 24.3667 83.5559 23.38L84.3559 23.7C84.0626 24.58 83.5826 25.4333 82.9159 26.26C82.2493 27.0867 81.4093 27.7667 80.3959 28.3C79.3826 28.8067 78.2093 29.06 76.8759 29.06C74.9559 29.06 73.3026 28.62 71.9159 27.74C70.5559 26.86 69.5026 25.6467 68.7559 24.1C68.0359 22.5267 67.6759 20.7267 67.6759 18.7C67.6759 16.3533 68.0493 14.34 68.7959 12.66C69.5426 10.9533 70.5959 9.64667 71.9559 8.74C73.3159 7.80667 74.9026 7.34 76.7159 7.34Z" fill="white"/>
</svg>
